<svg width="128" height="128" viewBox="0 0 128 128" xmlns="http://www.w3.org/2000/svg">
  <!-- Background circle with gradient -->
  <defs>
    <linearGradient id="bgGradient" x1="0%" y1="0%" x2="100%" y2="100%">
      <stop offset="0%" style="stop-color:#FF6B35;stop-opacity:1" />
      <stop offset="100%" style="stop-color:#FF8E53;stop-opacity:1" />
    </linearGradient>
    <linearGradient id="textGradient" x1="0%" y1="0%" x2="100%" y2="100%">
      <stop offset="0%" style="stop-color:#FFFFFF;stop-opacity:1" />
      <stop offset="100%" style="stop-color:#F5F5F5;stop-opacity:1" />
    </linearGradient>
  </defs>

  <!-- Background circle -->
  <circle cx="64" cy="64" r="58" fill="url(#bgGradient)" stroke="#E55A2B" stroke-width="2"/>

  <!-- Letter "S" for Slop -->
  <path d="M 45 40
           Q 45 28 55 28
           L 75 28
           Q 85 28 85 38
           Q 85 48 75 48
           L 55 48
           Q 45 48 45 58
           Q 45 68 55 68
           L 75 68
           Q 85 68 85 78
           Q 85 88 75 88
           L 55 88
           Q 45 88 45 78"
        fill="none"
        stroke="url(#textGradient)"
        stroke-width="6"
        stroke-linecap="round"/>

  <!-- Small dots for "sloppiness" theme -->
  <circle cx="35" cy="45" r="2" fill="#FFCC99" opacity="0.8"/>
  <circle cx="93" cy="60" r="1.5" fill="#FFCC99" opacity="0.6"/>
  <circle cx="40" cy="85" r="1" fill="#FFCC99" opacity="0.7"/>
</svg>